<?xml version="1.0" encoding="iso-8859-1"?>
<!-- Generator: Adobe Illustrator 16.0.0, SVG Export Plug-In . SVG Version: 6.00 Build 0)  -->
<!DOCTYPE svg PUBLIC "-//W3C//DTD SVG 1.1//EN" "http://www.w3.org/Graphics/SVG/1.1/DTD/svg11.dtd">
<svg version="1.1" id="Capa_1" xmlns="http://www.w3.org/2000/svg" xmlns:xlink="http://www.w3.org/1999/xlink" x="0px" y="0px"
	 width="55" height="55" viewBox="0 0 55.048 55.049" style="enable-background:new 0 0 55.048 55.049;"
	 xml:space="preserve">
<g>
	<g>
		<path fill='#FFF' d="M50.108,19.307h-16.75V11.89H21.69v7.417H4.941c-0.875,0-1.584,0.709-1.584,1.583s0.709,1.583,1.584,1.583H21.69v7.417
			h3.905v2.403c0,0.563,0.247,1.067,0.634,1.42c-0.251,0.042-0.514,0.075-0.776,0.104c-1.124,0.131-2.398,0.279-2.667,1.472
			l-0.012,0.101c-0.006,0.323,0.113,0.61,0.344,0.832c0.716,0.688,2.334,0.631,4.917,0.477c2.027-0.119,4.55-0.268,5.296,0.412
			c0.127,0.117,0.188,0.25,0.193,0.432c0.032,0.977-1.525,1.174-3.73,1.346c-1.784,0.139-3.467,0.271-4.24,1.178
			c-0.302,0.354-0.434,0.789-0.392,1.295l0.583-0.049c-0.199,0.026-0.401,0.051-0.583,0.082v1.637l4.182,0.02
			c3.112,0,4.849,1.719,4.829,4.727c0,3.457-1.92,5.233-5.151,5.213c-0.505,0-1.03,0-1.374-0.061v-7.562h-2.485v9.421
			c0.808,0.103,1.899,0.183,3.354,0.183c2.646,0,4.809-0.627,6.162-1.859c1.293-1.172,2.121-2.989,2.121-5.414
			c0-2.323-0.807-3.94-2.121-5.01c-1.252-1.051-3.01-1.576-5.556-1.576c-1.058,0-2.069,0.054-2.961,0.149
			c-0.016-0.228,0.032-0.401,0.155-0.547c0.502-0.59,2.124-0.717,3.556-0.829c2.211-0.172,4.719-0.367,4.652-2.376
			c-0.016-0.446-0.193-0.84-0.52-1.136c-1.058-0.967-3.584-0.816-6.028-0.672c-1.645,0.098-3.686,0.219-4.187-0.276
			c0.163-0.396,0.793-0.497,1.779-0.61c0.784-0.092,1.64-0.197,2.269-0.623c0.916-0.149,1.617-0.938,1.617-1.896v-2.404h3.904
			v-7.417h16.75c0.874,0,1.583-0.709,1.583-1.583S50.982,19.307,50.108,19.307z"/>
		<path fill='#FFF' d="M20.567,16.202h0.332v-3.375h-0.332c-0.933,0-1.688,0.755-1.688,1.688C18.879,15.448,19.634,16.202,20.567,16.202z"/>
		<path fill='#FFF' d="M33.878,12.827v3.375h0.332c0.934,0,1.688-0.755,1.688-1.688c0-0.933-0.755-1.688-1.688-1.688L33.878,12.827
			L33.878,12.827z"/>
		<path fill='#FFF' d="M22.106,47.797v-0.04c1.616-0.565,2.424-1.696,2.424-3.071c0-1.718-1.394-3.213-4.102-3.213
			c-1.576,0-3.031,0.485-3.778,1.01l0.566,1.799c0.545-0.363,1.616-0.828,2.687-0.828c1.434,0,2.101,0.748,2.101,1.636
			c0,1.313-1.455,1.839-2.606,1.839h-1.111v1.818h1.151c1.516,0,2.97,0.667,2.97,2.222c0.02,1.031-0.748,2.103-2.646,2.103
			c-1.252,0-2.485-0.506-2.99-0.81l-0.566,1.88c0.707,0.465,2.081,0.908,3.677,0.908c3.253,0,5.112-1.757,5.112-3.979
			C24.995,49.292,23.702,48.08,22.106,47.797z"/>
	</g>
</g>
<g>
</g>
<g>
</g>
<g>
</g>
<g>
</g>
<g>
</g>
<g>
</g>
<g>
</g>
<g>
</g>
<g>
</g>
<g>
</g>
<g>
</g>
<g>
</g>
<g>
</g>
<g>
</g>
<g>
</g>
</svg>
