<?xml version="1.0" encoding="iso-8859-1"?>
<!-- Generator: Adobe Illustrator 19.0.0, SVG Export Plug-In . SVG Version: 6.00 Build 0)  -->
<svg version="1.1" id="Capa_1" xmlns="http://www.w3.org/2000/svg" xmlns:xlink="http://www.w3.org/1999/xlink" x="0px" y="0px"
	 viewBox="0 0 512 512" style="enable-background:new 0 0 512 512;" xml:space="preserve">
<g>
	<g>
		<path fill='#FFF' d="M497,241h-55v-95c0-8.284-6.716-15-15-15h-45v-25c0-8.284-6.716-15-15-15H121v330h246c8.284,0,15-6.716,15-15v-25h45
			c8.284,0,15-6.716,15-15v-95h55c8.284,0,15-6.716,15-15S505.284,241,497,241z M321.5,331h-140c-8.284,0-15-6.716-15-15
			s6.716-15,15-15h140c8.284,0,15,6.716,15,15S329.784,331,321.5,331z M321.5,211h-140c-8.284,0-15-6.716-15-15s6.716-15,15-15h140
			c8.284,0,15,6.716,15,15S329.784,211,321.5,211z"/>
	</g>
</g>
<g>
	<g>
		<path fill='#FFF' d="M45,91c-24.813,0-45,20.187-45,45v240c0,24.813,20.187,45,45,45h46V91H45z"/>
	</g>
</g>
<g>
</g>
<g>
</g>
<g>
</g>
<g>
</g>
<g>
</g>
<g>
</g>
<g>
</g>
<g>
</g>
<g>
</g>
<g>
</g>
<g>
</g>
<g>
</g>
<g>
</g>
<g>
</g>
<g>
</g>
</svg>
